<svg width="32" height="32" viewBox="0 0 32 32" fill="none" xmlns="http://www.w3.org/2000/svg">
<path d="M31.6786 4.67317L27.2921 0.286719C27.079 0.11185 26.8085 0.0224843 26.5332 0.0360057C26.2579 0.049527 25.9975 0.164968 25.8026 0.359875C25.6077 0.554781 25.4922 0.815217 25.4787 1.09052C25.4652 1.36583 25.5546 1.63633 25.7294 1.84939L25.935 2.0413L18.3821 7.71628L13.1321 8.77177C12.9218 8.81416 12.7273 8.91377 12.5701 9.05963L0.973367 20.67C0.665016 20.9747 0.420205 21.3376 0.25312 21.7376C0.0860355 22.1376 0 22.5668 0 23.0003C0 23.4338 0.0860355 23.863 0.25312 24.263C0.420205 24.6631 0.665016 25.0259 0.973367 25.3306L6.63464 30.9919C6.93934 31.3003 7.30222 31.5451 7.70223 31.7122C8.10224 31.8792 8.53144 31.9653 8.96494 31.9653C9.39845 31.9653 9.82764 31.8792 10.2277 31.7122C10.6277 31.5451 10.9905 31.3003 11.2952 30.9919L22.9056 19.3952C23.0515 19.2379 23.1511 19.0435 23.1935 18.8332L24.249 13.5832L29.924 6.03023L30.1159 6.23585C30.3255 6.43853 30.6056 6.55182 30.8972 6.55182C31.1888 6.55182 31.4689 6.43853 31.6786 6.23585C31.8845 6.02794 32 5.74714 32 5.45451C32 5.16188 31.8845 4.88108 31.6786 4.67317ZM12.2548 26.9344L5.03084 19.7105L11.1582 13.5832L18.3821 20.8071L12.2548 26.9344ZM8.1836 29.4429L2.52233 23.7817C2.41872 23.6796 2.33644 23.558 2.28027 23.4239C2.22411 23.2897 2.19518 23.1458 2.19518 23.0003C2.19518 22.8549 2.22411 22.7109 2.28027 22.5768C2.33644 22.4427 2.41872 22.321 2.52233 22.219L3.48187 21.2595L10.7058 28.4834L9.74628 29.4429C9.53837 29.6489 9.25757 29.7644 8.96494 29.7644C8.67231 29.7644 8.39151 29.6489 8.1836 29.4429ZM22.3436 12.4728C22.2493 12.6038 22.1839 12.7533 22.1517 12.9115L21.1099 18.0793L19.9311 19.2581L12.7071 12.0342L13.886 10.8553L19.0538 9.81355C19.212 9.78142 19.3615 9.716 19.4924 9.62164L27.4977 3.61768L28.3476 4.46756L22.3436 12.4728Z" fill="#ABABAB"/>
</svg>
