<svg width="32" height="32" viewBox="0 0 32 32" fill="none" xmlns="http://www.w3.org/2000/svg">
<path d="M18 9.33301L6 14.5997H26L22.6667 9.99967" stroke="#ABABAB" stroke-width="2" stroke-linecap="round" stroke-linejoin="round"/>
<path d="M20.6667 11.3333C22.1394 11.3333 23.3333 10.1394 23.3333 8.66667C23.3333 7.19391 22.1394 6 20.6667 6C19.1939 6 18 7.19391 18 8.66667C18 10.1394 19.1939 11.3333 20.6667 11.3333Z" fill="#ABABAB" stroke="#ABABAB" stroke-width="2"/>
<path d="M22 5.99984L23.3333 2.6665" stroke="#ABABAB" stroke-width="2" stroke-linecap="round"/>
<path d="M6.33366 17.9712C5.93233 18.1712 5.55899 18.3845 5.21499 18.6085C3.61233 19.6539 2.66699 20.9412 2.66699 22.3332C2.66699 25.8312 8.63633 28.6665 16.0003 28.6665C23.3643 28.6665 29.3337 25.8312 29.3337 22.3332C29.3337 20.9065 28.3417 19.5912 26.667 18.5325" stroke="#ABABAB" stroke-width="2"/>
<path d="M6 14.6665H26V22.6665H6V14.6665Z" stroke="#ABABAB" stroke-width="2" stroke-linecap="round" stroke-linejoin="round"/>
<path d="M6 14.6665H26.6667" stroke="#ABABAB" stroke-width="2"/>
</svg>
