<svg width="24" height="24" viewBox="0 0 24 24" fill="none" xmlns="http://www.w3.org/2000/svg">
<rect width="24" height="24" rx="4" fill="#1C9EC7"/>
<path d="M16 10C16.3956 10 16.7822 9.8827 17.1111 9.66294C17.44 9.44318 17.6964 9.13082 17.8478 8.76537C17.9991 8.39992 18.0387 7.99778 17.9616 7.60982C17.8844 7.22186 17.6939 6.86549 17.4142 6.58579C17.1345 6.30608 16.7781 6.1156 16.3902 6.03843C16.0022 5.96126 15.6001 6.00087 15.2346 6.15224C14.8692 6.30362 14.5568 6.55996 14.3371 6.88886C14.1173 7.21776 14 7.60444 14 8C14 8.53043 14.2107 9.03914 14.5858 9.41421C14.9609 9.78929 15.4696 10 16 10ZM16 7.33333C16.1319 7.33333 16.2607 7.37243 16.3704 7.44569C16.48 7.51894 16.5655 7.62306 16.6159 7.74488C16.6664 7.8667 16.6796 8.00074 16.6539 8.13006C16.6281 8.25938 16.5646 8.37817 16.4714 8.47141C16.3782 8.56464 16.2594 8.62813 16.1301 8.65386C16.0007 8.67958 15.8667 8.66638 15.7449 8.61592C15.6231 8.56546 15.5189 8.48001 15.4457 8.37038C15.3724 8.26075 15.3333 8.13186 15.3333 8C15.3333 7.82319 15.4036 7.65362 15.5286 7.5286C15.6536 7.40357 15.8232 7.33333 16 7.33333Z" fill="#F5F5F5"/>
<path d="M18.6667 4H5.33333C4.97971 4 4.64057 4.14048 4.39052 4.39052C4.14048 4.64057 4 4.97971 4 5.33333V18.6667C4 19.0203 4.14048 19.3594 4.39052 19.6095C4.64057 19.8595 4.97971 20 5.33333 20H18.6667C19.0203 20 19.3594 19.8595 19.6095 19.6095C19.8595 19.3594 20 19.0203 20 18.6667V5.33333C20 4.97971 19.8595 4.64057 19.6095 4.39052C19.3594 4.14048 19.0203 4 18.6667 4ZM18.6667 18.6667H5.33333V14.6667L8.66667 11.3333L12.3933 15.06C12.6432 15.3083 12.9811 15.4477 13.3333 15.4477C13.6856 15.4477 14.0235 15.3083 14.2733 15.06L15.3333 14L18.6667 17.3333V18.6667ZM18.6667 15.4467L16.2733 13.0533C16.0235 12.805 15.6856 12.6656 15.3333 12.6656C14.9811 12.6656 14.6432 12.805 14.3933 13.0533L13.3333 14.1133L9.60667 10.3867C9.35685 10.1383 9.01891 9.99894 8.66667 9.99894C8.31442 9.99894 7.97648 10.1383 7.72667 10.3867L5.33333 12.78V5.33333H18.6667V15.4467Z" fill="#F5F5F5"/>
</svg>
