<svg width="32" height="32" viewBox="0 0 32 32" fill="none" xmlns="http://www.w3.org/2000/svg">
<path d="M24.0003 14.6665V7.99984H20.0003V5.33317H16.0003V2.6665H10.667V6.6665H8.00033V14.6665H6.66699L9.33366 29.3332H22.667L25.3337 14.6665H24.0003ZM21.147 14.6665C20.9337 15.4798 20.5337 16.2132 20.0003 16.8265V11.4932L22.667 12.8265V14.6665H21.147ZM22.667 9.33317V11.3332L20.0003 9.99984V9.33317H22.667ZM16.0003 6.6665H18.667V11.3332L16.0003 12.6665V6.6665ZM16.0003 14.1598L18.667 12.8265V17.9332C17.8803 18.3998 16.9737 18.6665 16.0003 18.6665V14.1598ZM14.667 18.4798C13.6137 18.1998 12.667 17.6265 12.0003 16.8265V12.8265L14.667 11.4932V18.4798ZM12.0003 3.99984H14.667V9.99984L13.3337 10.6665V6.6665H12.0003V3.99984ZM9.33366 7.99984H12.0003V11.3332L10.667 11.9998V14.6665H9.33366V7.99984Z" fill="#ABABAB"/>
</svg>
