<svg width="40" height="40" viewBox="0 0 40 40" fill="none" xmlns="http://www.w3.org/2000/svg">
<path d="M39.5982 5.84159L34.1151 0.358521C33.8488 0.139934 33.5107 0.0282275 33.1665 0.0451292C32.8224 0.0620308 32.4969 0.206332 32.2532 0.449965C32.0096 0.693598 31.8653 1.01914 31.8484 1.36328C31.8315 1.70741 31.9432 2.04553 32.1618 2.31186L32.4188 2.55175L22.9776 9.64547L16.4151 10.9648C16.1523 11.0178 15.9092 11.1423 15.7126 11.3247L1.21671 25.8377C0.831271 26.2185 0.525256 26.6721 0.3164 27.1721C0.107544 27.6722 0 28.2087 0 28.7505C0 29.2924 0.107544 29.8289 0.3164 30.3289C0.525256 30.8289 0.831271 31.2825 1.21671 31.6634L8.2933 38.74C8.67418 39.1254 9.12777 39.4315 9.62779 39.6403C10.1278 39.8492 10.6643 39.9567 11.2062 39.9567C11.7481 39.9567 12.2846 39.8492 12.7846 39.6403C13.2846 39.4315 13.7382 39.1254 14.1191 38.74L28.6321 24.2441C28.8144 24.0476 28.9389 23.8045 28.9919 23.5416L30.3112 16.9791L37.405 7.53791L37.6449 7.79493C37.9069 8.04828 38.2571 8.1899 38.6215 8.1899C38.986 8.1899 39.3362 8.04828 39.5982 7.79493C39.8556 7.53505 40 7.18405 40 6.81826C40 6.45248 39.8556 6.10148 39.5982 5.84159ZM15.3185 33.6682L6.28855 24.6382L13.9477 16.9791L22.9776 26.009L15.3185 33.6682ZM10.2295 36.8038L3.15292 29.7272C3.0234 29.5997 2.92055 29.4476 2.85034 29.28C2.78014 29.1123 2.74398 28.9323 2.74398 28.7505C2.74398 28.5688 2.78014 28.3888 2.85034 28.2211C2.92055 28.0535 3.0234 27.9014 3.15292 27.7739L4.35234 26.5744L13.3823 35.6044L12.1828 36.8038C11.923 37.0612 11.572 37.2056 11.2062 37.2056C10.8404 37.2056 10.4894 37.0612 10.2295 36.8038ZM27.9295 15.5912C27.8116 15.7549 27.7298 15.9418 27.6897 16.1395L26.3874 22.5992L24.9139 24.0728L15.8839 15.0429L17.3575 13.5693L23.8172 12.2671C24.015 12.2269 24.2019 12.1451 24.3655 12.0272L34.3721 4.52223L35.4345 5.58457L27.9295 15.5912Z" fill="white"/>
</svg>
