<svg xmlns="http://www.w3.org/2000/svg" width="32" height="32" fill="none"><path fill="#ABABAB" d="M31.679 4.673 27.292.287a1.11 1.11 0 0 0-1.563 1.562l.206.192-7.553 5.675-5.25 1.056c-.21.042-.405.142-.562.288L.973 20.67a3.276 3.276 0 0 0 0 4.66l5.662 5.662a3.276 3.276 0 0 0 4.66 0l11.61-11.597c.146-.157.246-.351.288-.562l1.056-5.25 5.675-7.553.192.206a1.124 1.124 0 0 0 1.563 0 1.11 1.11 0 0 0 0-1.563ZM12.255 26.934 5.03 19.71l6.127-6.127 7.224 7.224-6.127 6.127Zm-4.071 2.509-5.662-5.661a1.098 1.098 0 0 1 0-1.563l.96-.96 7.224 7.224-.96.96a1.11 1.11 0 0 1-1.562 0Zm14.16-16.97a1.14 1.14 0 0 0-.192.438L21.11 18.08l-1.179 1.18-7.224-7.225 1.179-1.179 5.168-1.041c.158-.033.308-.098.438-.192l8.006-6.004.85.85-6.004 8.005Z"/></svg>