<svg width="30" height="29" viewBox="0 0 30 29" fill="none" xmlns="http://www.w3.org/2000/svg">
<path d="M17 8.33301L5 13.5997H25L21.6667 8.99967" stroke="#ABABAB" stroke-width="2" stroke-linecap="round" stroke-linejoin="round"/>
<path d="M19.6667 10.3333C21.1394 10.3333 22.3333 9.13943 22.3333 7.66667C22.3333 6.19391 21.1394 5 19.6667 5C18.1939 5 17 6.19391 17 7.66667C17 9.13943 18.1939 10.3333 19.6667 10.3333Z" fill="#ABABAB" stroke="#ABABAB" stroke-width="2"/>
<path d="M21 4.99984L22.3333 1.6665" stroke="#ABABAB" stroke-width="2" stroke-linecap="round"/>
<path d="M5.33366 16.9712C4.93233 17.1712 4.55899 17.3845 4.21499 17.6085C2.61233 18.6539 1.66699 19.9412 1.66699 21.3332C1.66699 24.8312 7.63633 27.6665 15.0003 27.6665C22.3643 27.6665 28.3337 24.8312 28.3337 21.3332C28.3337 19.9065 27.3417 18.5912 25.667 17.5325" stroke="#ABABAB" stroke-width="2"/>
<path d="M5 13.6665H25V21.6665H5V13.6665Z" stroke="#ABABAB" stroke-width="2" stroke-linecap="round" stroke-linejoin="round"/>
<path d="M5 13.6665H25.6667" stroke="#ABABAB" stroke-width="2"/>
</svg>
