<svg xmlns="http://www.w3.org/2000/svg" width="20" height="28" fill="none"><path fill="#ABABAB" d="M18 12.666V6h-4V3.333h-4V.667H4.667v4H2v8H.667l2.667 14.666h13.333l2.667-14.666H18Zm-2.853 0A5.365 5.365 0 0 1 14 14.826V9.493l2.667 1.333v1.84h-1.52Zm1.52-5.333v2L14 8v-.667h2.667ZM10 4.666h2.667v4.667L10 10.666v-6Zm0 7.494 2.667-1.334v5.107a5.198 5.198 0 0 1-2.667.733V12.16Zm-1.333 4.32c-1.053-.28-2-.854-2.667-1.654v-4l2.667-1.333v6.987ZM6 2h2.667v6l-1.333.666v-4H6V2ZM3.334 6H6v3.333L4.667 10v2.666H3.334V6Z"/></svg>