<svg width="20" height="28" viewBox="0 0 20 28" fill="none" xmlns="http://www.w3.org/2000/svg">
<path d="M18.0003 12.6665V5.99984H14.0003V3.33317H10.0003V0.666504H4.66699V4.6665H2.00033V12.6665H0.666992L3.33366 27.3332H16.667L19.3337 12.6665H18.0003ZM15.147 12.6665C14.9337 13.4798 14.5337 14.2132 14.0003 14.8265V9.49317L16.667 10.8265V12.6665H15.147ZM16.667 7.33317V9.33317L14.0003 7.99984V7.33317H16.667ZM10.0003 4.6665H12.667V9.33317L10.0003 10.6665V4.6665ZM10.0003 12.1598L12.667 10.8265V15.9332C11.8803 16.3998 10.9737 16.6665 10.0003 16.6665V12.1598ZM8.66699 16.4798C7.61366 16.1998 6.66699 15.6265 6.00033 14.8265V10.8265L8.66699 9.49317V16.4798ZM6.00033 1.99984H8.66699V7.99984L7.33366 8.6665V4.6665H6.00033V1.99984ZM3.33366 5.99984H6.00033V9.33317L4.66699 9.99984V12.6665H3.33366V5.99984Z" fill="#ABABAB"/>
</svg>
